<svg width="32" height="32" viewBox="0 0 32 32" fill="none" xmlns="http://www.w3.org/2000/svg">
<path d="M13.5081 28V10.784C13.5081 10.3467 13.5188 9.85067 13.5401 9.296C13.5615 8.74133 13.6468 8.18133 13.7961 7.616C13.9561 7.05067 14.2441 6.53867 14.6601 6.08C15.1935 5.48266 15.7695 5.07733 16.3881 4.864C17.0175 4.64 17.6255 4.52267 18.2121 4.512C18.7988 4.49067 19.3001 4.48 19.7161 4.48H21.8601V8H19.8761C19.1935 8 18.6868 8.176 18.3561 8.528C18.0255 8.86933 17.8601 9.28 17.8601 9.76V28H13.5081ZM10.7881 14.08V10.72H21.8601V14.08H10.7881Z" fill="url(#paint0_linear_103_531)"/>
<defs>
<linearGradient id="paint0_linear_103_531" x1="9.31148" y1="16.2449" x2="32.6921" y2="18.8504" gradientUnits="userSpaceOnUse">
<stop stop-color="#7A5CFA"/>
<stop offset="0.9" stop-color="#C78BFF"/>
</linearGradient>
</defs>
</svg>
