<svg width="126" height="66" viewBox="0 0 126 66" fill="none" xmlns="http://www.w3.org/2000/svg">
<g clip-path="url(#clip0_46_712)">
<path d="M5.54344 51V25.176C5.54344 24.52 5.55944 23.776 5.59144 22.944C5.62344 22.112 5.75144 21.272 5.97544 20.424C6.21544 19.576 6.64744 18.808 7.27144 18.12C8.07144 17.224 8.93544 16.616 9.86344 16.296C10.8074 15.96 11.7194 15.784 12.5994 15.768C13.4794 15.736 14.2314 15.72 14.8554 15.72H18.0714V21H15.0954C14.0714 21 13.3114 21.264 12.8154 21.792C12.3194 22.304 12.0714 22.92 12.0714 23.64V51H5.54344ZM1.46344 30.12V25.08H18.0714V30.12H1.46344ZM23.1114 21.48V15.72H29.6394V21.48H23.1114ZM23.1114 51V25.08H29.6394V51H23.1114ZM54.5162 51V38.76C54.5162 38.168 54.4842 37.416 54.4202 36.504C54.3562 35.576 54.1562 34.648 53.8202 33.72C53.4842 32.792 52.9322 32.016 52.1642 31.392C51.4122 30.768 50.3402 30.456 48.9482 30.456C48.3882 30.456 47.7882 30.544 47.1482 30.72C46.5082 30.896 45.9082 31.24 45.3482 31.752C44.7882 32.248 44.3242 32.984 43.9562 33.96C43.6042 34.936 43.4282 36.232 43.4282 37.848L39.6842 36.072C39.6842 34.024 40.1002 32.104 40.9322 30.312C41.7642 28.52 43.0122 27.072 44.6762 25.968C46.3562 24.864 48.4682 24.312 51.0122 24.312C53.0442 24.312 54.7002 24.656 55.9802 25.344C57.2602 26.032 58.2522 26.904 58.9562 27.96C59.6762 29.016 60.1882 30.12 60.4922 31.272C60.7962 32.408 60.9802 33.448 61.0442 34.392C61.1082 35.336 61.1402 36.024 61.1402 36.456V51H54.5162ZM36.8042 51V25.08H42.6122V33.672H43.4282V51H36.8042ZM74.5678 51.72C72.7118 51.72 71.1358 51.368 69.8398 50.664C68.5598 49.944 67.5838 48.992 66.9118 47.808C66.2558 46.608 65.9278 45.288 65.9278 43.848C65.9278 42.648 66.1118 41.552 66.4798 40.56C66.8478 39.568 67.4398 38.696 68.2558 37.944C69.0878 37.176 70.1998 36.536 71.5918 36.024C72.5518 35.672 73.6958 35.36 75.0238 35.088C76.3518 34.816 77.8558 34.56 79.5358 34.32C81.2158 34.064 83.0638 33.784 85.0798 33.48L82.7278 34.776C82.7278 33.24 82.3598 32.112 81.6238 31.392C80.8878 30.672 79.6558 30.312 77.9278 30.312C76.9678 30.312 75.9678 30.544 74.9278 31.008C73.8878 31.472 73.1598 32.296 72.7438 33.48L66.8398 31.608C67.4958 29.464 68.7278 27.72 70.5358 26.376C72.3438 25.032 74.8078 24.36 77.9278 24.36C80.2158 24.36 82.2478 24.712 84.0238 25.416C85.7998 26.12 87.1438 27.336 88.0558 29.064C88.5678 30.024 88.8718 30.984 88.9678 31.944C89.0638 32.904 89.1118 33.976 89.1118 35.16V51H83.3998V45.672L84.2158 46.776C82.9518 48.52 81.5838 49.784 80.1118 50.568C78.6558 51.336 76.8078 51.72 74.5678 51.72ZM75.9598 46.584C77.1598 46.584 78.1678 46.376 78.9838 45.96C79.8158 45.528 80.4718 45.04 80.9518 44.496C81.4478 43.952 81.7838 43.496 81.9598 43.128C82.2958 42.424 82.4878 41.608 82.5358 40.68C82.5998 39.736 82.6318 38.952 82.6318 38.328L84.5518 38.808C82.6158 39.128 81.0478 39.4 79.8478 39.624C78.6478 39.832 77.6798 40.024 76.9438 40.2C76.2078 40.376 75.5598 40.568 74.9998 40.776C74.3598 41.032 73.8398 41.312 73.4398 41.616C73.0558 41.904 72.7678 42.224 72.5758 42.576C72.3998 42.928 72.3118 43.32 72.3118 43.752C72.3118 44.344 72.4558 44.856 72.7438 45.288C73.0478 45.704 73.4718 46.024 74.0158 46.248C74.5598 46.472 75.2078 46.584 75.9598 46.584ZM95.3522 51V25.08H101.112V31.416L100.488 30.6C100.824 29.704 101.272 28.888 101.832 28.152C102.392 27.416 103.08 26.808 103.896 26.328C104.52 25.944 105.2 25.648 105.936 25.44C106.672 25.216 107.432 25.08 108.216 25.032C109 24.968 109.784 24.984 110.568 25.08V31.176C109.848 30.952 109.008 30.88 108.048 30.96C107.104 31.024 106.248 31.24 105.48 31.608C104.712 31.96 104.064 32.432 103.536 33.024C103.008 33.6 102.608 34.288 102.336 35.088C102.064 35.872 101.928 36.76 101.928 37.752V51H95.3522ZM115.613 21.48V15.72H122.141V21.48H115.613ZM115.613 51V25.08H122.141V51H115.613Z" fill="url(#paint0_linear_46_712)"/>
</g>
<defs>
<linearGradient id="paint0_linear_46_712" x1="36.6639" y1="33.6735" x2="127.555" y2="48.1758" gradientUnits="userSpaceOnUse">
<stop stop-color="#7A5CFA"/>
<stop offset="0.9" stop-color="#C78BFF"/>
</linearGradient>
<clipPath id="clip0_46_712">
<rect width="126" height="66" fill="white"/>
</clipPath>
</defs>
</svg>
