<svg width="122" height="37" viewBox="0 0 122 37" fill="none" xmlns="http://www.w3.org/2000/svg">
<path d="M4.54344 36V10.176C4.54344 9.52 4.55944 8.776 4.59144 7.944C4.62344 7.112 4.75144 6.272 4.97544 5.424C5.21544 4.576 5.64744 3.808 6.27144 3.12C7.07144 2.224 7.93544 1.616 8.86344 1.296C9.80744 0.959997 10.7194 0.783998 11.5994 0.767999C12.4794 0.735999 13.2314 0.719999 13.8554 0.719999H17.0714V6H14.0954C13.0714 6 12.3114 6.264 11.8154 6.792C11.3194 7.304 11.0714 7.92 11.0714 8.64V36H4.54344ZM0.463438 15.12V10.08H17.0714V15.12H0.463438ZM22.1114 6.48V0.719999H28.6394V6.48H22.1114ZM22.1114 36V10.08H28.6394V36H22.1114ZM53.5162 36V23.76C53.5162 23.168 53.4842 22.416 53.4202 21.504C53.3562 20.576 53.1562 19.648 52.8202 18.72C52.4842 17.792 51.9322 17.016 51.1642 16.392C50.4122 15.768 49.3402 15.456 47.9482 15.456C47.3882 15.456 46.7882 15.544 46.1482 15.72C45.5082 15.896 44.9082 16.24 44.3482 16.752C43.7882 17.248 43.3242 17.984 42.9562 18.96C42.6042 19.936 42.4282 21.232 42.4282 22.848L38.6842 21.072C38.6842 19.024 39.1002 17.104 39.9322 15.312C40.7642 13.52 42.0122 12.072 43.6762 10.968C45.3562 9.864 47.4682 9.312 50.0122 9.312C52.0442 9.312 53.7002 9.656 54.9802 10.344C56.2602 11.032 57.2522 11.904 57.9562 12.96C58.6762 14.016 59.1882 15.12 59.4922 16.272C59.7962 17.408 59.9802 18.448 60.0442 19.392C60.1082 20.336 60.1402 21.024 60.1402 21.456V36H53.5162ZM35.8042 36V10.08H41.6122V18.672H42.4282V36H35.8042ZM73.5678 36.72C71.7118 36.72 70.1358 36.368 68.8398 35.664C67.5598 34.944 66.5838 33.992 65.9118 32.808C65.2558 31.608 64.9278 30.288 64.9278 28.848C64.9278 27.648 65.1118 26.552 65.4798 25.56C65.8478 24.568 66.4398 23.696 67.2558 22.944C68.0878 22.176 69.1998 21.536 70.5918 21.024C71.5518 20.672 72.6958 20.36 74.0238 20.088C75.3518 19.816 76.8558 19.56 78.5358 19.32C80.2158 19.064 82.0638 18.784 84.0798 18.48L81.7278 19.776C81.7278 18.24 81.3598 17.112 80.6238 16.392C79.8878 15.672 78.6558 15.312 76.9278 15.312C75.9678 15.312 74.9678 15.544 73.9278 16.008C72.8878 16.472 72.1598 17.296 71.7438 18.48L65.8398 16.608C66.4958 14.464 67.7278 12.72 69.5358 11.376C71.3438 10.032 73.8078 9.36 76.9278 9.36C79.2158 9.36 81.2478 9.712 83.0238 10.416C84.7998 11.12 86.1438 12.336 87.0558 14.064C87.5678 15.024 87.8718 15.984 87.9678 16.944C88.0638 17.904 88.1118 18.976 88.1118 20.16V36H82.3998V30.672L83.2158 31.776C81.9518 33.52 80.5838 34.784 79.1118 35.568C77.6558 36.336 75.8078 36.72 73.5678 36.72ZM74.9598 31.584C76.1598 31.584 77.1678 31.376 77.9838 30.96C78.8158 30.528 79.4718 30.04 79.9518 29.496C80.4478 28.952 80.7838 28.496 80.9598 28.128C81.2958 27.424 81.4878 26.608 81.5358 25.68C81.5998 24.736 81.6318 23.952 81.6318 23.328L83.5518 23.808C81.6158 24.128 80.0478 24.4 78.8478 24.624C77.6478 24.832 76.6798 25.024 75.9438 25.2C75.2078 25.376 74.5598 25.568 73.9998 25.776C73.3598 26.032 72.8398 26.312 72.4398 26.616C72.0558 26.904 71.7678 27.224 71.5758 27.576C71.3998 27.928 71.3118 28.32 71.3118 28.752C71.3118 29.344 71.4558 29.856 71.7438 30.288C72.0478 30.704 72.4718 31.024 73.0158 31.248C73.5598 31.472 74.2078 31.584 74.9598 31.584ZM94.3522 36V10.08H100.112V16.416L99.4882 15.6C99.8242 14.704 100.272 13.888 100.832 13.152C101.392 12.416 102.08 11.808 102.896 11.328C103.52 10.944 104.2 10.648 104.936 10.44C105.672 10.216 106.432 10.08 107.216 10.032C108 9.968 108.784 9.984 109.568 10.08V16.176C108.848 15.952 108.008 15.88 107.048 15.96C106.104 16.024 105.248 16.24 104.48 16.608C103.712 16.96 103.064 17.432 102.536 18.024C102.008 18.6 101.608 19.288 101.336 20.088C101.064 20.872 100.928 21.76 100.928 22.752V36H94.3522ZM114.613 6.48V0.719999H121.141V6.48H114.613ZM114.613 36V10.08H121.141V36H114.613Z" fill="url(#paint0_linear_59_525)"/>
<defs>
<linearGradient id="paint0_linear_59_525" x1="28.5574" y1="19.6327" x2="146.091" y2="29.4559" gradientUnits="userSpaceOnUse">
<stop stop-color="#7A5CFA"/>
<stop offset="0.9" stop-color="#C78BFF"/>
</linearGradient>
</defs>
</svg>
